<svg xmlns="http://www.w3.org/2000/svg" width="14" height="15" viewBox="0 0 14 15">
    <path fill="#FFF" fill-rule="nonzero" d="M9.766 1.75c.068 0 .138.018.213.053a7.01 7.01 0 0 1 2.9 2.513A6.842 6.842 0 0 1 14 8.072C14 11.892 10.86 15 7 15s-7-3.108-7-6.928C0 6.74.384 5.446 1.111 4.33A7.01 7.01 0 0 1 3.99 1.817a.573.573 0 0 1 .24-.054c.202 0 .439.13.439.497v.83c0 .287-.11.505-.32.63-1.556.932-2.485 2.559-2.485 4.352 0 2.803 2.304 5.083 5.136 5.083 2.832 0 5.136-2.28 5.136-5.083a5.049 5.049 0 0 0-2.427-4.317c-.078-.048-.334-.238-.334-.653v-.819c0-.494.3-.532.391-.532zM7.511 0c.257 0 .466.207.466.461v4.474a.464.464 0 0 1-.466.461h-.978a.464.464 0 0 1-.466-.46V.46c0-.254.209-.461.466-.461z"/>
</svg>
