<svg xmlns="http://www.w3.org/2000/svg" width="24" height="24" viewBox="0 0 24 24">
    <g fill="#FFF" fill-rule="evenodd" stroke="#FFF" stroke-width=".3">
        <path d="M19.656 4H7.824a.35.35 0 0 0-.343.355v7.06H4.344A.35.35 0 0 0 4 11.77v6.018c0 1.188.935 2.154 2.084 2.154h11.832c1.149 0 2.084-.966 2.084-2.154V4.355A.35.35 0 0 0 19.656 4zM4.687 17.788v-5.663h2.794v5.663c0 .796-.627 1.443-1.397 1.443s-1.397-.647-1.397-1.443zm14.626 0c0 .796-.627 1.443-1.397 1.443H7.629c.335-.382.54-.888.54-1.443V4.71h11.144v13.078z"/>
        <path d="M11.321 8.926h5.12a.327.327 0 0 0 .322-.332.327.327 0 0 0-.322-.332h-5.12a.327.327 0 0 0-.321.332c0 .184.144.332.321.332zM11.321 12.575h5.12a.327.327 0 0 0 .322-.332.327.327 0 0 0-.322-.332h-5.12a.327.327 0 0 0-.321.332c0 .183.144.332.321.332zM11.321 16.223h5.12a.327.327 0 0 0 .322-.332.327.327 0 0 0-.322-.332h-5.12a.327.327 0 0 0-.321.332c0 .184.144.332.321.332z"/>
    </g>
</svg>
