<svg xmlns="http://www.w3.org/2000/svg" width="15" height="15" viewBox="0 0 15 15">
    <g fill="#FFF" fill-rule="evenodd">
        <path d="M.377 6.39A.377.377 0 0 0 0 6.767v7.05c0 .209.169.377.377.377h3.447a.377.377 0 0 0 .378-.377v-7.05a.377.377 0 0 0-.378-.377H.377zm.375 7.05h2.695V7.141H.752v6.297zM5.392.387v13.43c0 .209.17.377.378.377h3.446a.377.377 0 0 0 .378-.377V.387a.377.377 0 0 0-.378-.378h-3.45a.379.379 0 0 0-.374.378zm.752 13.055H8.84V.764H6.144v12.678zM14.606 14.191a.377.377 0 0 0 .377-.377V4.769a.377.377 0 0 0-.377-.377h-3.447a.377.377 0 0 0-.377.377v9.048c0 .209.168.377.377.377h3.447v-.003zm-3.07-.749h2.695V5.147h-2.694v8.295z"/>
    </g>
</svg>
