<?xml version="1.0" encoding="UTF-8"?>
<svg width="24px" height="24px" viewBox="0 0 24 24" version="1.1" xmlns="http://www.w3.org/2000/svg" xmlns:xlink="http://www.w3.org/1999/xlink">
    <!-- Generator: Sketch 52.2 (67145) - http://www.bohemiancoding.com/sketch -->
    <title>Touch Bar</title>
    <desc>Created with Sketch.</desc>
    <g id="Touch-Bar" stroke="none" stroke-width="1" fill="none" fill-rule="evenodd">
        <g id="Nuclei-White-logo" transform="translate(3.000000, 4.000000)" fill="#FFFFFF">
            <g transform="translate(-0.000000, 0.000000)" id="Combined-Shape">
                <path d="M15.8704782,0.276143988 C17.1142233,0.80543417 17.8851998,2.00767901 17.8924731,3.40651735 L17.8924731,12.5934827 C17.8924731,13.992321 17.1214966,15.1945658 15.8777516,15.7314173 C14.6340065,16.2682688 13.2738876,15.9885011 12.321077,14.9979723 L9.82631349,12.4044504 L6.02961797,8.45745794 C5.30228167,7.70132911 5.30228167,6.48396169 6.02961797,5.72783286 L6.5751202,5.16073624 C6.97515517,4.74486538 6.97515517,4.06434943 6.5751202,3.64847858 L4.80769298,1.81108552 C4.33492438,1.32716306 3.78942215,1.14569214 3.2875601,1.14569214 C2.98207885,1.14569214 2.68387097,1.21374374 2.43657662,1.31960177 C1.78197395,1.59936944 1.09100446,2.29500797 1.09100446,3.40651735 L1.09100446,12.5934827 C1.09100446,13.704992 1.78924731,14.4006306 2.43657662,14.6803982 C3.08390594,14.9601659 4.05126322,14.9752885 4.80769298,14.1889145 L5.25864149,13.7201146 C5.46956902,13.5008372 5.81869044,13.5008372 6.02961797,13.7201146 C6.2405455,13.939392 6.2405455,14.3023338 6.02961797,14.5216112 L5.57866946,14.990411 C4.94588688,15.6482431 4.13127022,15.9960624 3.2875601,15.9960624 C2.85843168,15.9960624 2.42930326,15.9128882 2.01472157,15.7314173 C0.770976484,15.1945658 0,13.992321 0,12.5934827 L0,3.40651735 C0,2.00767901 0.770976484,0.80543417 2.01472157,0.268582699 C3.25846665,-0.268268771 4.61858554,0.0114988968 5.5713961,1.00202767 L11.9137687,7.59547108 C12.6120115,8.32135475 12.6120115,9.49335444 11.9137687,10.2192381 L11.3173529,10.8392638 C10.9173179,11.2551346 10.9173179,11.9356506 11.3173529,12.3515214 L13.0847801,14.1889145 C13.5575487,14.6728369 14.103051,14.8543079 14.604913,14.8543079 C14.9103943,14.8543079 15.2086022,14.7862563 15.4558965,14.6803982 C16.1104992,14.4006306 16.8014687,13.704992 16.8014687,12.5934827 L16.8014687,3.40651735 C16.8014687,2.29500797 16.1032258,1.59936944 15.4558965,1.31960177 C14.8085672,1.03983411 13.8412099,1.02471153 13.0847801,1.81108552 L12.6338316,2.27988539 C12.4229041,2.49916275 12.0737827,2.49916275 11.8628551,2.27988539 C11.659201,2.06060803 11.6664743,1.6901049 11.8628551,1.47838883 L12.3065303,1.01715024 C12.9393129,0.359318159 13.7539295,0.0114988968 14.5976397,0.0114988968 C15.0267681,0.0114988968 15.4558965,0.0946730682 15.8704782,0.276143988 Z M8.9389632,8.57087727 C9.23717108,8.57087727 9.48446543,8.31379347 9.48446543,8.00378064 C9.48446543,7.69376782 9.23717108,7.43668402 8.9389632,7.43668402 C8.64075531,7.43668402 8.39346097,7.69376782 8.39346097,8.00378064 C8.39346097,8.31379347 8.64075531,8.57087727 8.9389632,8.57087727 Z M11.0580393,3.71492184 C10.7575199,3.73712405 10.4965877,3.50185944 10.475231,3.18944362 C10.4538742,2.8770278 10.6801802,2.60576629 10.9806996,2.58356408 C11.2812189,2.56136187 11.5421512,2.79662649 11.5635079,3.10904231 C11.5848647,3.42145813 11.3585586,3.69271963 11.0580393,3.71492184 Z M6.85878136,12.2910311 C7.16426261,12.2910311 7.40428359,12.5405536 7.40428359,12.8581277 C7.40428359,13.1681406 7.15698925,13.4252244 6.85878136,13.4252244 C6.56057348,13.4252244 6.31327913,13.1681406 6.31327913,12.8581277 C6.31327913,12.5481149 6.56057348,12.2910311 6.85878136,12.2910311 Z" fill-rule="nonzero"></path>
            </g>
        </g>
    </g>
</svg>