<svg xmlns="http://www.w3.org/2000/svg" width="106" height="28" viewBox="0 0 106 28">
    <g fill="none" fill-rule="evenodd">
        <g transform="translate(2 2)">
            <g stroke="#FFF" stroke-linecap="round" stroke-linejoin="round" stroke-width="2.7">
                <path d="M10.8 12c6.405 8 10.408 12 12.007 12 .842-.001 2.394.003 3.592-1.196.798-.8 1.198-2 1.201-3.604V4.8c-.009-1.578-.409-2.762-1.201-3.553C25.21.06 23.643 0 22.807 0c-1.16 0-2.32.839-3.48 2.517"/>
                <path d="M16.8 12C10.395 4 6.392 0 4.793 0c-.842.001-2.395-.003-3.592 1.196-.798.8-1.198 2-1.201 3.604v14.4c.009 1.578.409 2.762 1.201 3.553C2.39 23.94 3.957 24 4.793 24c1.16 0 2.322-.84 3.484-2.523"/>
            </g>
            <circle cx="17.94" cy="4.86" r="1" fill="#FFF"/>
            <circle cx="9.66" cy="19.14" r="1" fill="#FFF"/>
            <path fill="#FFF" fill-rule="nonzero" d="M11.333 14.179l-1.996-2.296a2.4 2.4 0 0 1 .236-3.386l1.148-.998c.161-.242.241-.472.241-.69 0-.219-.08-.447-.24-.685h1.581l.44-.383 3.571 4.108 2.07 2.38a2.4 2.4 0 0 1-.237 3.387l-1.148.997c-.161.242-.241.472-.241.69 0 .219.08.447.24.686h-1.581l-.44.382-3.644-4.192zm2.527-1.219a.9.9 0 1 0 0-1.8.9.9 0 0 0 0 1.8z"/>
        </g>
        <path fill="#FFF" fill-rule="nonzero" d="M50.921 7.227c.244 0 .442.08.596.24.153.16.23.361.23.604v11.656a.93.93 0 0 1-.259.672.88.88 0 0 1-.663.268c-.14 0-.278-.022-.412-.066a.695.695 0 0 1-.317-.202l-7.545-9.832v9.254a.82.82 0 0 1-.846.846.788.788 0 0 1-.594-.24.839.839 0 0 1-.231-.605V8.149c0-.27.087-.49.26-.663a.87.87 0 0 1 .643-.26c.153 0 .3.03.441.087.14.058.25.138.327.24l7.526 9.85V8.07a.82.82 0 0 1 .844-.844zm13.671 3.379c.269 0 .49.09.663.269.172.179.258.396.258.653v5.107c0 1.331-.368 2.364-1.104 3.1-.736.736-1.776 1.104-3.12 1.104-1.33 0-2.361-.368-3.09-1.104-.73-.736-1.095-1.769-1.095-3.1v-5.107c0-.257.087-.474.26-.653a.856.856 0 0 1 .643-.269.904.904 0 0 1 .921.922v5.107c0 1.676.787 2.515 2.361 2.515.782 0 1.376-.211 1.786-.633.41-.423.614-1.05.614-1.882v-5.107c0-.257.087-.474.26-.653a.854.854 0 0 1 .643-.269zm10.425-.23c1.012 0 1.854.16 2.526.48.672.32 1.008.73 1.008 1.228 0 .218-.071.413-.212.586a.663.663 0 0 1-.538.26.839.839 0 0 1-.393-.078 4.332 4.332 0 0 1-.393-.25 2.066 2.066 0 0 0-.366-.268 2.515 2.515 0 0 0-.652-.192 4.327 4.327 0 0 0-.768-.077c-.666 0-1.254.154-1.767.46a3.14 3.14 0 0 0-1.19 1.278 3.89 3.89 0 0 0-.423 1.814c0 .678.138 1.287.414 1.824.274.538.662.96 1.161 1.267.5.307 1.069.461 1.709.461.666 0 1.203-.102 1.613-.307.09-.051.21-.135.365-.25.105-.087.217-.164.336-.23a.744.744 0 0 1 .354-.077c.256 0 .458.08.606.24.146.16.22.368.22.624 0 .269-.17.534-.508.797-.34.262-.794.477-1.364.643a6.511 6.511 0 0 1-1.833.25c-.973 0-1.83-.227-2.573-.682a4.568 4.568 0 0 1-1.718-1.882c-.404-.8-.606-1.692-.606-2.678s.212-1.878.634-2.678a4.723 4.723 0 0 1 1.766-1.882c.756-.454 1.62-.682 2.592-.682zm9.87 9.37c0 .255-.09.473-.27.652a.889.889 0 0 1-.652.269.858.858 0 0 1-.644-.269.906.906 0 0 1-.258-.653V7.38c0-.256.089-.473.268-.653a.888.888 0 0 1 .653-.268c.256 0 .47.089.643.268.173.18.26.397.26.654v12.364zm13.92-4.494a.825.825 0 0 1-.288.586.92.92 0 0 1-.634.24h-6.758c.089.934.444 1.683 1.065 2.247.62.562 1.38.844 2.275.844.614 0 1.114-.09 1.498-.269a3.76 3.76 0 0 0 1.018-.69c.192-.116.377-.174.556-.174.218 0 .4.077.547.23a.753.753 0 0 1 .221.538c0 .27-.128.512-.384.73-.371.371-.864.685-1.478.94a4.85 4.85 0 0 1-1.882.385c-1.036 0-1.948-.218-2.736-.654a4.549 4.549 0 0 1-1.824-1.823c-.428-.78-.643-1.664-.643-2.65 0-1.075.22-2.019.663-2.832.441-.813 1.024-1.437 1.746-1.872a4.447 4.447 0 0 1 2.334-.653c.818 0 1.586.212 2.304.634a4.813 4.813 0 0 1 1.728 1.747c.434.743.658 1.575.672 2.496zm-4.704-3.187c-.718 0-1.338.202-1.863.605-.525.403-.87 1.027-1.037 1.872h5.664v-.153c-.064-.679-.368-1.236-.912-1.671a2.887 2.887 0 0 0-1.853-.653zm10.944 7.68a.904.904 0 0 1-.922.922.858.858 0 0 1-.644-.269.906.906 0 0 1-.258-.653V11.43c0-.256.086-.473.258-.652a.858.858 0 0 1 .644-.269c.268 0 .49.09.662.269.173.179.26.396.26.653v8.313zm-.922-10.502c-.372 0-.637-.067-.797-.202-.16-.134-.24-.349-.24-.643v-.307c0-.307.087-.525.26-.654.172-.127.437-.191.796-.191.359 0 .617.067.777.201.16.135.24.349.24.644v.306c0 .308-.082.526-.249.654-.167.128-.429.192-.787.192z"/>
    </g>
</svg>
