<svg xmlns="http://www.w3.org/2000/svg" xmlns:xlink="http://www.w3.org/1999/xlink" width="142" height="107" viewBox="0 0 142 107">
    <defs>
        <rect id="a" width="46" height="46" rx="2"/>
    </defs>
    <g fill="none" fill-rule="evenodd" transform="translate(1)">
        <g transform="translate(46 61)">
            <mask id="b" fill="#fff">
                <use xlink:href="#a"/>
            </mask>
            <use fill="#D1D8DF" xlink:href="#a"/>
            <g stroke="#FFF" stroke-linecap="round" stroke-linejoin="round" stroke-width="1.231" mask="url(#b)">
                <path d="M21.034 21.115h-5.479c-.283 0-.513-.2-.513-.448v-5.385c0-.248.23-.449.513-.449h5.48c.283 0 .513.201.513.45v5.384c0 .247-.23.448-.514.448zM21.548 30.718c0 .248-.077.449-.171.449h-6.164c-.095 0-.171-.201-.171-.45v-5.384c0-.247.076-.448.17-.448h6.165c.094 0 .171.2.171.448v5.385zM31.445 21.115h-5.48c-.283 0-.513-.2-.513-.448v-5.385c0-.248.23-.449.514-.449h5.479c.283 0 .513.201.513.45v5.384c0 .247-.23.448-.513.448zM31.958 30.718c0 .248-.076.449-.17.449h-6.165c-.094 0-.171-.201-.171-.45v-5.384c0-.247.077-.448.171-.448h6.164c.095 0 .171.2.171.448v5.385z"/>
            </g>
        </g>
        <path fill="#D5DBDF" d="M24.788 40.26L21.047 44l3.74 3.74a.75.75 0 0 1 0 1.048c-.16.16-.32.2-.521.2s-.361-.081-.522-.2L20 45.047l-3.744 3.74c-.16.16-.321.202-.522.202s-.362-.082-.522-.201a.751.751 0 0 1 0-1.047L18.953 44l-3.74-3.74a.751.751 0 0 1 0-1.048.751.751 0 0 1 1.046 0L20 42.953l3.74-3.74a.751.751 0 0 1 1.048 0c.283.282.283.722 0 1.046zM51.83 1.007L48.838 4l2.992 2.993a.6.6 0 0 1 0 .837.532.532 0 0 1-.417.161c-.161 0-.29-.066-.418-.16L48 4.837 45.004 7.83a.533.533 0 0 1-.417.161c-.16 0-.29-.066-.417-.16a.601.601 0 0 1 0-.838L47.162 4 44.17 1.007a.601.601 0 0 1 0-.837.601.601 0 0 1 .837 0L48 3.162 50.992.17a.601.601 0 0 1 .838 0c.226.226.226.578 0 .837zM123.809 40.133l-3.367 3.367 3.367 3.367a.676.676 0 0 1 0 .942.599.599 0 0 1-.47.181c-.18 0-.325-.074-.47-.181l-3.369-3.367-3.37 3.367a.6.6 0 0 1-.47.181c-.18 0-.325-.074-.469-.181a.676.676 0 0 1 0-.942l3.367-3.367-3.367-3.367a.676.676 0 0 1 0-.942.676.676 0 0 1 .942 0l3.367 3.367 3.367-3.367a.676.676 0 0 1 .942 0c.255.255.255.65 0 .942zM78.873 29.756L76.628 32l2.245 2.244a.45.45 0 0 1 0 .629.4.4 0 0 1-.313.12.51.51 0 0 1-.313-.12L76 32.628l-2.247 2.245a.4.4 0 0 1-.313.12.51.51 0 0 1-.313-.12.45.45 0 0 1 0-.629L75.372 32l-2.245-2.244a.45.45 0 0 1 0-.629.45.45 0 0 1 .629 0L76 31.372l2.244-2.245a.45.45 0 0 1 .629 0c.17.17.17.434 0 .629zM140.873 64.756L138.628 67l2.245 2.244a.45.45 0 0 1 0 .629.4.4 0 0 1-.313.12.51.51 0 0 1-.313-.12L138 67.628l-2.247 2.245a.4.4 0 0 1-.313.12.51.51 0 0 1-.313-.12.45.45 0 0 1 0-.629L137.372 67l-2.245-2.244a.45.45 0 0 1 0-.629.45.45 0 0 1 .629 0L138 66.372l2.244-2.245a.45.45 0 0 1 .629 0c.17.17.17.434 0 .629z"/>
        <circle cx="4.5" cy="63.5" r="4.5" stroke="#D5DBDF" stroke-width="1.1"/>
        <circle cx="129.5" cy="22.5" r="4.5" stroke="#D5DBDF" stroke-width="1.1"/>
        <circle cx="92.5" cy="9.5" r="3.5" stroke="#D5DBDF" stroke-width="1.1"/>
        <circle cx="120" cy="59" r="3" stroke="#D5DBDF" stroke-width="1.1"/>
        <circle cx="15" cy="14" r="3" stroke="#D5DBDF" stroke-width="1.1"/>
        <circle cx="41" cy="37" r="2" stroke="#D5DBDF" stroke-width="1.1"/>
    </g>
</svg>
