<svg xmlns="http://www.w3.org/2000/svg" width="151" height="148" viewBox="0 0 151 148">
    <g fill="none" fill-rule="evenodd">
        <path fill="#F6F6F6" d="M0 0h1280v802H0z"/>
        <path fill="#FFF" fill-rule="nonzero" d="M47.332 22.449c2.142.86 3.47 2.813 3.483 5.087v14.928c0 2.274-1.328 4.227-3.47 5.1-2.142.872-4.484.417-6.125-1.192l-4.297-4.215-6.539-6.414a3.088 3.088 0 0 1 0-4.435l.94-.922a1.72 1.72 0 0 0 0-2.457l-3.044-2.986c-.814-.786-1.754-1.081-2.618-1.081-.526 0-1.04.11-1.466.282-1.127.455-2.317 1.585-2.317 3.392v14.928c0 1.807 1.202 2.937 2.317 3.392 1.115.454 2.781.479 4.084-.799l.777-.762a.958.958 0 0 1 1.327 0 .915.915 0 0 1 0 1.303l-.776.761c-1.09 1.07-2.493 1.635-3.946 1.635-.74 0-1.478-.136-2.192-.43-2.142-.873-3.47-2.826-3.47-5.1V27.536c0-2.274 1.328-4.227 3.47-5.1 2.142-.872 4.484-.417 6.125 1.192l10.923 10.715a2.97 2.97 0 0 1 0 4.263l-1.027 1.008a1.72 1.72 0 0 0 0 2.457l3.044 2.986c.814.786 1.754 1.081 2.618 1.081.526 0 1.04-.11 1.465-.282 1.128-.455 2.318-1.585 2.318-3.392V27.536c0-1.807-1.203-2.937-2.318-3.392-1.114-.454-2.78-.479-4.083.799l-.777.762a.958.958 0 0 1-1.328 0 .95.95 0 0 1 0-1.303l.765-.75c1.09-1.068 2.492-1.633 3.945-1.633.74 0 1.478.135 2.192.43zM35.395 35.928c.513 0 .94-.418.94-.922a.937.937 0 0 0-.94-.921.937.937 0 0 0-.94.921c0 .504.426.922.94.922zm3.65-7.891a.934.934 0 0 1-1.004-.854.928.928 0 0 1 .87-.985.934.934 0 0 1 1.004.854.928.928 0 0 1-.87.985zm-7.233 13.936c.526 0 .94.405.94.921a.937.937 0 0 1-.94.922.937.937 0 0 1-.94-.922c0-.503.427-.921.94-.921z"/>
    </g>
</svg>
