<svg xmlns="http://www.w3.org/2000/svg" width="24" height="24" viewBox="0 0 24 24">
    <g fill="#FFF" fill-rule="nonzero">
        <path d="M23.39 8.893L16.105 1.61A2.073 2.073 0 0 0 14.63 1c-.559 0-1.083.216-1.476.61L1.61 13.154c-.393.393-.61.918-.61 1.477s.217 1.083.61 1.476l.898.898 6.036 6.037h-.836a.48.48 0 0 0 0 .958h9.583a.48.48 0 0 0 0-.958h-5.097L23.39 11.846a2.09 2.09 0 0 0 0-2.953zm-.678 2.275L11.168 22.713a1.121 1.121 0 0 1-.797.329h-.004a1.12 1.12 0 0 1-.797-.33l-6.046-6.045L14.611 5.579a.48.48 0 0 0-.678-.677L2.847 15.989l-.56-.56a1.121 1.121 0 0 1-.329-.798c0-.303.117-.587.33-.8L13.83 2.288c.212-.212.496-.329.8-.329.302 0 .586.117.798.33l2.592 2.591L6.934 15.967a.48.48 0 0 0 .678.677L18.699 5.557l4.013 4.013c.44.44.44 1.158 0 1.598z"/>
        <path d="M11.881 14.119a.405.405 0 0 0-.573 0l-3.19 3.19a.405.405 0 0 0 .574.572l3.19-3.19a.405.405 0 0 0 0-.572zM11.347 18.112l-1.235 1.235a.383.383 0 0 0 .541.54l1.235-1.234a.383.383 0 0 0-.541-.54zM12.296 17.12l-.175.176a.413.413 0 0 0 .583.583l.175-.175a.412.412 0 1 0-.583-.583zM19.624 8.13a.441.441 0 0 0-.624 0L17.13 10a.441.441 0 0 0 0 .624l1.246 1.247a.44.44 0 0 0 .624 0L20.87 10a.441.441 0 0 0 0-.624L19.625 8.13zm-.936 2.805l-.623-.623 1.247-1.247.623.623-1.247 1.247zM15.413 4c.105 0 .21-.04.291-.12l.175-.176a.412.412 0 1 0-.583-.583l-.175.175a.412.412 0 0 0 .292.704zM5.296 17.12l-.175.176a.413.413 0 0 0 .583.583l.175-.175a.413.413 0 0 0-.583-.583z"/>
    </g>
</svg>
