<svg xmlns="http://www.w3.org/2000/svg" width="24" height="24" viewBox="0 0 24 24">
    <g fill="none" fill-rule="evenodd" stroke="#FFF" stroke-linecap="round" stroke-linejoin="round" stroke-width="1.231">
        <path d="M9.96 10.385H5.425C5.19 10.385 5 10.212 5 10V5.385C5 5.172 5.19 5 5.425 5H9.96c.234 0 .425.172.425.385V10c0 .212-.19.385-.425.385zM10.385 18.615c0 .213-.064.385-.142.385H5.142C5.063 19 5 18.828 5 18.615V14c0-.212.063-.385.142-.385h5.1c.08 0 .143.173.143.385v4.615zM18.575 10.385H14.04c-.234 0-.425-.173-.425-.385V5.385c0-.213.19-.385.425-.385h4.535c.235 0 .425.172.425.385V10c0 .212-.19.385-.425.385zM19 18.615c0 .213-.063.385-.142.385h-5.1c-.08 0-.143-.172-.143-.385V14c0-.212.064-.385.142-.385h5.101c.079 0 .142.173.142.385v4.615z"/>
    </g>
</svg>
