<svg xmlns="http://www.w3.org/2000/svg" width="13" height="12" viewBox="0 0 13 12">
    <path fill="#97A4B1" fill-rule="nonzero" d="M12.086 0a.42.42 0 0 0-.424.424v2.511A6.004 6.004 0 0 0 .5 6.005 5.995 5.995 0 0 0 6.5 12c3.31 0 6-2.687 6-5.995a.42.42 0 0 0-.424-.424.42.42 0 0 0-.424.424 5.168 5.168 0 0 1-5.162 5.158c-2.845 0-5.152-2.326-5.152-5.168A5.168 5.168 0 0 1 6.5.837a5.14 5.14 0 0 1 4.686 3.008H8.217a.42.42 0 0 0-.424.424.42.42 0 0 0 .424.424h3.859a.42.42 0 0 0 .424-.424V.413A.415.415 0 0 0 12.086 0z"/>
</svg>
