<svg xmlns="http://www.w3.org/2000/svg" xmlns:xlink="http://www.w3.org/1999/xlink" width="13" height="11" viewBox="0 0 13 11">
    <defs>
        <path id="a" d="M205.356 87.297a4.974 4.974 0 0 0-3.532-1.468 4.993 4.993 0 0 0-4.993 5 4.99 4.99 0 1 0 9.825 1.25h-1.3a3.744 3.744 0 0 1-3.532 2.5 3.753 3.753 0 0 1-3.75-3.75 3.753 3.753 0 0 1 3.75-3.75c1.038 0 1.963.43 2.638 1.112l-2.013 2.013h4.375v-4.375l-1.468 1.468z"/>
    </defs>
    <use fill="#97A4B1" fill-rule="evenodd" transform="rotate(44 209.019 -194.23)" xlink:href="#a"/>
</svg>
