<svg xmlns="http://www.w3.org/2000/svg" width="101" height="27" viewBox="0 0 101 27">
    <g fill="none" fill-rule="evenodd">
        <g transform="translate(2 2)">
            <g stroke="#FFF" stroke-linecap="round" stroke-linejoin="round" stroke-width="2.7">
                <path d="M10.35 11.5C16.488 19.167 20.324 23 21.856 23c.807-.001 2.295.003 3.443-1.146.764-.766 1.148-1.917 1.151-3.454V4.6c-.008-1.512-.392-2.647-1.151-3.405C24.159.058 22.658 0 21.857 0c-1.112 0-2.223.804-3.335 2.412"/>
                <path d="M16.1 11.5C9.962 3.833 6.126 0 4.594 0 3.786.001 2.298-.003 1.15 1.146.387 1.912.003 3.063 0 4.6v13.8c.008 1.512.392 2.647 1.151 3.405C2.291 22.942 3.792 23 4.593 23c1.112 0 2.225-.806 3.339-2.418"/>
            </g>
            <circle cx="17.192" cy="4.657" r="1" fill="#FFF"/>
            <circle cx="9.258" cy="18.343" r="1" fill="#FFF"/>
            <path fill="#FFF" fill-rule="nonzero" d="M10.86 13.588l-1.912-2.2a2.3 2.3 0 0 1 .226-3.245l1.1-.957c.155-.231.231-.451.231-.661 0-.21-.076-.428-.23-.656h1.516l.421-.367 3.422 3.936 1.983 2.282a2.3 2.3 0 0 1-.226 3.245l-1.1.956c-.155.231-.231.452-.231.661 0 .21.076.428.23.657h-1.516l-.421.366-3.492-4.017zm2.423-1.168a.862.862 0 1 0 0-1.725.862.862 0 0 0 0 1.725z"/>
        </g>
        <path fill="#FFF" fill-rule="nonzero" d="M48.883 7.009c.233 0 .424.077.57.23a.804.804 0 0 1 .222.58v11.17a.892.892 0 0 1-.249.643.844.844 0 0 1-.635.258c-.134 0-.266-.022-.396-.064a.666.666 0 0 1-.303-.194l-7.23-9.422v8.869a.786.786 0 0 1-.811.81.755.755 0 0 1-.57-.23.804.804 0 0 1-.221-.58V7.892a.86.86 0 0 1 .249-.635.834.834 0 0 1 .616-.248c.147 0 .288.027.423.083a.72.72 0 0 1 .313.23l7.213 9.439V7.818a.786.786 0 0 1 .809-.81zm13.101 3.238c.257 0 .469.086.635.258.166.172.248.38.248.626v4.894c0 1.276-.353 2.266-1.058 2.971-.705.706-1.702 1.058-2.99 1.058-1.275 0-2.263-.352-2.962-1.058-.7-.705-1.049-1.695-1.049-2.971V11.13c0-.246.083-.454.249-.626a.82.82 0 0 1 .616-.258.866.866 0 0 1 .883.884v4.894c0 1.607.754 2.41 2.263 2.41.749 0 1.319-.202 1.712-.607.392-.405.588-1.006.588-1.803V11.13c0-.246.083-.454.25-.626a.819.819 0 0 1 .615-.258zm9.99-.22c.97 0 1.777.153 2.421.46.644.306.966.699.966 1.177a.866.866 0 0 1-.202.561.636.636 0 0 1-.516.249.804.804 0 0 1-.377-.074 4.151 4.151 0 0 1-.377-.24 1.98 1.98 0 0 0-.35-.257 2.41 2.41 0 0 0-.626-.184 4.146 4.146 0 0 0-.736-.073c-.637 0-1.201.147-1.693.44a3.01 3.01 0 0 0-1.14 1.225c-.27.521-.405 1.1-.405 1.739 0 .65.132 1.233.396 1.748.263.515.634.92 1.113 1.214a3.06 3.06 0 0 0 1.637.442c.639 0 1.154-.098 1.547-.295.085-.049.201-.129.35-.24.1-.082.207-.156.321-.22a.713.713 0 0 1 .34-.073c.245 0 .439.077.58.23.14.153.21.353.21.598 0 .257-.161.512-.486.763-.326.252-.76.457-1.306.617a6.24 6.24 0 0 1-1.757.239c-.933 0-1.755-.217-2.467-.653a4.377 4.377 0 0 1-1.646-1.804c-.386-.766-.58-1.622-.58-2.566 0-.945.202-1.8.607-2.567a4.526 4.526 0 0 1 1.693-1.803c.724-.436 1.552-.654 2.484-.654zm9.46 8.979a.852.852 0 0 1-.26.625.852.852 0 0 1-.625.258.822.822 0 0 1-.616-.258.868.868 0 0 1-.248-.626V7.155c0-.245.086-.453.258-.625a.851.851 0 0 1 .625-.257c.245 0 .451.086.617.257.165.172.248.38.248.626v11.85zm13.34-4.306a.79.79 0 0 1-.277.561.882.882 0 0 1-.607.23h-6.477c.086.896.426 1.614 1.021 2.153.595.54 1.322.81 2.18.81.589 0 1.067-.086 1.435-.258.36-.166.69-.39.976-.662.184-.11.362-.166.534-.166.208 0 .383.074.523.22.142.148.213.32.213.516 0 .258-.123.49-.368.7-.356.355-.828.656-1.418.9a4.649 4.649 0 0 1-1.802.369c-.994 0-1.868-.208-2.622-.626a4.36 4.36 0 0 1-1.748-1.748c-.411-.748-.617-1.594-.617-2.54 0-1.03.211-1.934.635-2.713.423-.779.981-1.377 1.674-1.794a4.261 4.261 0 0 1 2.236-.626c.785 0 1.52.203 2.208.607a4.613 4.613 0 0 1 1.656 1.675c.417.712.631 1.509.644 2.392zm-4.509-3.054c-.687 0-1.282.193-1.785.58-.503.386-.834.983-.993 1.793h5.428v-.147a2.248 2.248 0 0 0-.874-1.6c-.501-.41-1.13-.632-1.777-.627h.001zm10.488 7.36a.866.866 0 0 1-.884.883.822.822 0 0 1-.616-.258.868.868 0 0 1-.248-.626v-7.967a.87.87 0 0 1 .248-.625.822.822 0 0 1 .616-.258.869.869 0 0 1 .884.884v7.967zM99.87 8.94c-.355 0-.61-.064-.763-.193-.153-.13-.23-.335-.23-.617v-.294c0-.294.083-.503.249-.626.165-.122.42-.184.763-.184.344 0 .592.064.745.193.153.13.23.335.23.617v.294c0 .295-.08.503-.239.626-.16.123-.41.184-.754.184z"/>
    </g>
</svg>
