<svg xmlns="http://www.w3.org/2000/svg" width="16" height="16" viewBox="0 0 16 16">
    <g fill="#FFF" fill-rule="evenodd">
        <path d="M15.18 6.322l-1.123-.191a6.348 6.348 0 0 0-.452-1.09l.662-.925a.985.985 0 0 0-.107-1.274l-.996-.996a.981.981 0 0 0-1.27-.106l-.929.661a6.271 6.271 0 0 0-1.13-.464L9.65.827a.987.987 0 0 0-.976-.825H7.266a.987.987 0 0 0-.976.825l-.194 1.136c-.374.118-.739.271-1.086.458l-.92-.662a.982.982 0 0 0-.574-.183.975.975 0 0 0-.699.29l-.999.996a.99.99 0 0 0-.107 1.274l.669.939a6.18 6.18 0 0 0-.445 1.093l-1.11.187A.987.987 0 0 0 0 7.33v1.407c0 .484.348.895.826.976l1.136.194c.117.374.27.738.458 1.086l-.659.915a.985.985 0 0 0 .107 1.274l.996.996a.981.981 0 0 0 1.27.107l.94-.669c.337.177.691.321 1.055.435l.187 1.122c.08.478.492.826.976.826h1.41a.987.987 0 0 0 .977-.826l.19-1.122a6.33 6.33 0 0 0 1.09-.452l.925.662a.981.981 0 0 0 1.273-.107l.997-.996a.99.99 0 0 0 .106-1.273l-.661-.93c.184-.35.337-.714.45-1.089l1.124-.187a.987.987 0 0 0 .825-.976V7.297a.975.975 0 0 0-.819-.975zm-.077 2.382c0 .044-.03.08-.074.087l-1.404.234a.449.449 0 0 0-.36.331c-.127.491-.321.963-.582 1.4a.452.452 0 0 0 .02.492l.826 1.163a.091.091 0 0 1-.01.113l-.996.996a.085.085 0 0 1-.064.027.083.083 0 0 1-.05-.017l-1.16-.825a.452.452 0 0 0-.491-.02c-.438.26-.909.454-1.4.581a.444.444 0 0 0-.331.361l-.238 1.404a.086.086 0 0 1-.086.073H7.296a.087.087 0 0 1-.087-.073l-.234-1.404a.449.449 0 0 0-.331-.36 5.557 5.557 0 0 1-1.37-.562.463.463 0 0 0-.227-.06.44.44 0 0 0-.261.083l-1.17.832a.098.098 0 0 1-.05.017.09.09 0 0 1-.064-.027l-.995-.996a.09.09 0 0 1-.01-.113l.822-1.153a.458.458 0 0 0 .02-.495 5.294 5.294 0 0 1-.589-1.397.458.458 0 0 0-.36-.33L.976 8.824a.086.086 0 0 1-.074-.087V7.33c0-.044.03-.08.074-.087l1.393-.234c.178-.03.321-.16.365-.334a5.34 5.34 0 0 1 .571-1.404.446.446 0 0 0-.023-.488l-.832-1.17a.09.09 0 0 1 .01-.113l.996-.996a.085.085 0 0 1 .063-.027c.02 0 .037.007.05.017l1.153.822c.147.104.341.11.495.02.434-.26.906-.461 1.397-.588.17-.047.3-.187.33-.361L7.186.974a.086.086 0 0 1 .087-.073H8.68c.044 0 .08.03.087.073L9 2.368c.03.177.16.32.334.364.505.127.986.324 1.434.588.154.09.344.084.491-.02l1.153-.829a.099.099 0 0 1 .05-.016.09.09 0 0 1 .064.026l.996.996c.03.03.033.077.01.114l-.826 1.16a.452.452 0 0 0-.02.491c.261.438.455.909.582 1.4a.443.443 0 0 0 .36.331l1.404.237a.087.087 0 0 1 .074.087v1.407h-.003z"/>
        <path d="M8 4.547a3.455 3.455 0 0 0-3.452 3.452 3.455 3.455 0 0 0 3.453 3.452A3.454 3.454 0 0 0 11.453 8a3.454 3.454 0 0 0-3.452-3.452zm0 6.002A2.552 2.552 0 0 1 5.45 8 2.552 2.552 0 0 1 8 5.45 2.552 2.552 0 0 1 10.55 8 2.552 2.552 0 0 1 8 10.55z"/>
    </g>
</svg>
